
<svg
   width="210mm"
   height="148mm"
   viewBox="0 0 210 148"
   version="1.1"
   id="svg37561"
   inkscape:version="1.1.2 (0a00cf5339, 2022-02-04)"
   sodipodi:docname="HomeChef-Rough-Full.v5.svg"
   xmlns:inkscape="http://www.inkscape.org/namespaces/inkscape"
   xmlns:sodipodi="http://sodipodi.sourceforge.net/DTD/sodipodi-0.dtd"
   xmlns="http://www.w3.org/2000/svg"
   xmlns:svg="http://www.w3.org/2000/svg">
  <sodipodi:namedview
     id="namedview37563"
     pagecolor="#ffffff"
     bordercolor="#000000"
     borderopacity="0.25"
     inkscape:pageshadow="2"
     inkscape:pageopacity="0.0"
     inkscape:pagecheckerboard="0"
     inkscape:document-units="mm"
     showgrid="false"
     inkscape:zoom="0.76477183"
     inkscape:cx="375.92912"
     inkscape:cy="279.16823"
     inkscape:window-width="1292"
     inkscape:window-height="704"
     inkscape:window-x="0"
     inkscape:window-y="0"
     inkscape:window-maximized="1"
     inkscape:current-layer="layer1"
     showguides="true"
     inkscape:guide-bbox="true" />
  <defs
     id="defs37558" />
  <g
     inkscape:label="Camada 1"
     inkscape:groupmode="layer"
     id="layer1">
    <g
       id="g913">
      <path
         style="fill:#ff0000;fill-opacity:1;stroke-width:1.05998"
         d="m 43.632288,96.811693 c -0.210721,-2.11e-4 -0.412862,-0.08406 -0.56179,-0.233194 l -7.176052,-7.197265 c -0.97109,-0.990762 -1.515019,-2.322733 -1.515019,-3.70997 0,-1.38726 0.543929,-2.719231 1.515019,-3.70993 0.983969,-0.983877 2.318452,-1.536591 3.70993,-1.536591 1.391468,0 2.72594,0.552714 3.709918,1.536591 l 0.317994,0.275594 0.296794,-0.296795 c 0.486534,-0.49183 1.066023,-0.881958 1.704767,-1.147641 0.638745,-0.265695 1.324023,-0.401635 2.015766,-0.39993 0.691107,-0.0031 1.375854,0.131183 2.014595,0.395035 0.638639,0.26386 1.218553,0.652013 1.705934,1.141934 0.971049,0.9907 1.515027,2.322671 1.515027,3.709931 0,1.387241 -0.543978,2.719212 -1.515027,3.709974 l -7.176066,7.197265 c -0.07102,0.0796 -0.157406,0.144049 -0.253972,0.18963 -0.09646,0.04547 -0.201181,0.07112 -0.307818,0.07536 z"
         id="path2187-3" />
      <path
         d="m 43.632288,96.811693 c -0.210721,-2.11e-4 -0.412862,-0.08406 -0.56179,-0.233194 l -7.176052,-7.197265 c -0.97109,-0.990762 -1.515019,-2.322733 -1.515019,-3.70997 0,-1.38726 0.543929,-2.719231 1.515019,-3.70993 0.983969,-0.983877 2.318452,-1.536591 3.70993,-1.536591 1.391468,0 2.72594,0.552714 3.709918,1.536591 l 0.317994,0.275594 0.296794,-0.296795 c 0.486534,-0.49183 1.066023,-0.881958 1.704767,-1.147641 0.638745,-0.265695 1.324023,-0.401635 2.015766,-0.39993 0.691107,-0.0031 1.375854,0.131183 2.014595,0.395035 0.638639,0.26386 1.218553,0.652013 1.705934,1.141934 0.971049,0.9907 1.515027,2.322671 1.515027,3.709931 0,1.387241 -0.543978,2.719212 -1.515027,3.709974 l -7.176066,7.197265 c -0.07102,0.0796 -0.157406,0.144049 -0.253972,0.18963 -0.09646,0.04547 -0.201181,0.07112 -0.307818,0.07536 z M 39.614976,81.971932 c -0.481411,-0.0035 -0.958752,0.08836 -1.404484,0.270285 -0.445722,0.181936 -0.851005,0.45032 -1.192467,0.789694 -0.688065,0.691267 -1.074343,1.626911 -1.074343,2.602254 0,0.975327 0.386278,1.910971 1.074343,2.602293 l 6.614263,6.656671 6.603678,-6.635471 c 0.34195,-0.341634 0.613305,-0.747287 0.798376,-1.193856 0.185074,-0.446464 0.280364,-0.925077 0.280364,-1.408441 0,-0.48336 -0.09529,-0.961973 -0.280364,-1.408488 -0.185071,-0.446506 -0.456426,-0.852163 -0.798376,-1.193761 -0.338769,-0.340011 -0.742095,-0.608918 -1.186224,-0.790948 -0.444134,-0.182018 -0.920171,-0.273486 -1.400127,-0.269032 -0.481443,-0.0035 -0.958753,0.08836 -1.404475,0.270285 -0.445722,0.181932 -0.851058,0.450321 -1.192478,0.789695 l -0.858584,0.858584 c -0.151684,0.143892 -0.352759,0.22411 -0.56179,0.22411 -0.209027,0 -0.410106,-0.08022 -0.56179,-0.22411 l -0.85858,-0.858584 c -0.339725,-0.3432 -0.744203,-0.615499 -1.190009,-0.801101 -0.445807,-0.185602 -0.924038,-0.280809 -1.406933,-0.280079 z"
         fill="#000000"
         id="path2187"
         style="fill:#d98e04;fill-opacity:1;stroke-width:1.05998" />
      <path
         d="M 73.840749,92.307353 44.874192,66.404562 c -0.05064,-0.05064 -0.101281,-0.08862 -0.164585,-0.1266 -0.63301,-0.607692 -1.645823,-0.63301 -2.316818,-0.03798 L 13.42623,92.142768 c -0.708972,0.63301 -0.759613,1.709127 -0.139263,2.418096 0.341826,0.379811 0.810254,0.569714 1.278682,0.569714 0.405126,0 0.810253,-0.139267 1.139418,-0.430451 l 5.216007,-4.671616 v 0.911536 13.521103 15.77462 c 0,2.36746 1.924351,4.30447 4.30447,4.30447 0.03798,0 0.0633,0 0.101282,0 0.03798,0 0.0633,0 0.101282,0 h 8.938108 c 2.228197,0 4.038606,-1.81041 4.038606,-4.0386 V 105.1448 c 0,-0.34183 0.278525,-0.62035 0.620351,-0.62035 h 9.229292 c 0.341829,0 0.620351,0.27852 0.620351,0.62035 v 15.35684 c 0,2.22819 1.810412,4.0386 4.038605,4.0386 h 9.140675 c 2.405437,0 4.304468,-2.36745 4.304468,-5.39325 v -14.07815 -4.30447 -10.571273 l 5.216011,4.671615 c 0.329166,0.291184 0.734287,0.430447 1.139416,0.430447 0.468426,0 0.936855,-0.189903 1.278684,-0.56971 0.607688,-0.708973 0.544388,-1.785086 -0.151926,-2.418096 z m -10.913098,8.444357 v 4.30447 14.06549 c 0,1.22804 -0.607688,1.97499 -0.886218,1.97499 h -9.140667 c -0.341826,0 -0.620355,-0.27852 -0.620355,-0.62035 V 105.1448 c 0,-2.22819 -1.810405,-4.03861 -4.038605,-4.03861 h -9.229292 c -2.228198,0 -4.038608,1.81042 -4.038608,4.03861 v 15.35684 c 0,0.34182 -0.278525,0.62034 -0.62035,0.62034 h -8.938108 c -0.03798,0 -0.0633,0 -0.101282,0 -0.03798,0 -0.0633,0 -0.101282,0 -0.481087,0 -0.886214,-0.39246 -0.886214,-0.88621 V 104.44849 90.927388 86.964742 L 43.544872,69.797497 62.927651,87.129323 Z"
         id="path2"
         style="fill:#d98e04;fill-opacity:1;stroke-width:0.126602" />
      <g
         id="g1325"
         style="fill:#d98e04;fill-opacity:1"
         transform="matrix(0.08749443,0,0,0.08749443,21.233725,23.459759)">
        <path
           d="M 460.997,136.41 C 442.539,117.559 418.693,105.754 392.87,102.474 375.286,42.435 319.529,0 256,0 192.472,0 136.716,42.435 119.131,102.474 c -25.824,3.28 -49.67,15.085 -68.128,33.936 -21.354,21.808 -33.114,50.632 -33.114,81.159 0,59.613 41.685,107.395 97.427,115.005 V 512 H 396.685 V 332.575 c 55.742,-7.611 97.426,-55.393 97.426,-115.005 0,-30.528 -11.76,-59.352 -33.114,-81.16 z M 365.338,480.653 H 146.663 v -50.425 h 218.675 z m 15.674,-178.367 h -15.673 v 96.596 h -38.807 v -64.514 h -31.347 v 64.514 h -23.51 v -64.514 h -31.347 v 64.514 h -23.51 v -64.514 h -31.347 v 64.514 h -38.807 v -96.596 h -15.673 c -45.844,0 -81.754,-37.212 -81.754,-84.716 0,-45.635 37.115,-83.614 82.735,-84.661 l 12.514,-0.287 2.488,-12.267 C 157.432,68.78 203.285,31.347 256,31.347 c 52.367,0 97.945,36.946 108.799,87.991 0.226,7.129 -0.122,47.282 -35.695,56.697 l 8.021,30.303 c 26.557,-7.03 45.206,-25.178 53.93,-52.483 2.202,-6.89 3.475,-13.473 4.203,-19.168 38.368,8.055 67.507,42.452 67.507,82.882 -10e-4,47.505 -35.911,84.717 -81.753,84.717 z"
           id="path1323"
           style="fill:#d98e04;fill-opacity:1" />
      </g>
    </g>
    <g
       id="g846"
       transform="translate(0,7.4083337)">
      <g
         aria-label="HOME"
         id="text20821"
         style="font-weight:500;font-size:40.7753px;font-family:'LEMON MILK';-inkscape-font-specification:'LEMON MILK Medium';word-spacing:0px;fill:#d98e04;stroke-width:3.39794"
         transform="translate(0,-2.1166667)">
        <path
           d="M 92.597993,43.975524 V 56.817355 H 81.070211 V 43.975524 h -6.43087 v 32.094621 h 6.43087 v -12.86174 h 11.527782 v 12.86174 h 6.43087 V 43.975524 Z"
           id="path846" />
        <path
           d="m 119.87444,76.687349 c 9.19833,0 16.72424,-7.48609 16.72424,-16.624695 0,-9.218244 -7.52591,-16.744153 -16.70433,-16.744153 -9.17843,0 -16.68443,7.525909 -16.68443,16.744153 0,9.138605 7.506,16.624695 16.66452,16.624695 z m 0,-6.530419 c -5.59466,0 -10.15401,-4.559348 -10.15401,-10.134095 0,-5.614568 4.55935,-10.193825 10.15401,-10.193825 5.61457,0 10.19382,4.579257 10.19382,10.193825 0,5.574747 -4.57925,10.134095 -10.19382,10.134095 z"
           id="path848" />
        <path
           d="M 171.85896,43.179132 156.5085,64.383084 141.13812,43.179132 h -0.35838 v 32.891013 h 6.45078 v -13.97669 l 9.25807,13.439125 h 0.0398 l 9.23815,-13.439125 v 13.97669 h 6.45078 V 43.179132 Z"
           id="path850" />
        <path
           d="m 197.14443,50.326755 v -6.351231 h -19.35234 v 32.094621 h 19.35234 v -6.41096 h -12.90156 v -6.629969 h 11.06986 v -6.430869 h -11.06986 v -6.271592 z"
           id="path852" />
      </g>
      <g
         aria-label="Chef"
         id="text24860"
         style="font-size:64.2252px;font-family:'Oxford Street';-inkscape-font-specification:'Oxford Street';fill:#d98e04;stroke-width:5.35208"
         transform="translate(-2.15585)">
        <path
           d="m 106.83437,115.67716 c 9.56955,0 16.5701,-8.09238 19.90981,-16.248979 l 0.0642,-0.256901 c 0,-0.449576 -0.2569,-0.578027 -0.64225,-0.642252 -0.19268,0 -0.44958,0.12845 -0.57803,0.321126 -3.66083,5.459146 -11.23941,13.808416 -18.43263,13.808416 -3.66083,-0.0642 -5.07379,-2.11943 -5.07379,-5.90872 0,-9.441101 7.83548,-25.882751 16.0563,-27.616832 0.44958,-0.06423 0.89915,-0.192675 1.41295,-0.192675 1.34873,0 2.24789,0.642252 2.24789,2.183657 0,4.688439 -7.00055,15.028696 -10.53294,15.349822 -0.38535,0 -0.64225,0.2569 -0.64225,0.642252 0.19268,1.412954 2.89014,2.697458 5.00957,2.697458 0.83493,0 1.5414,-0.192676 2.11943,-0.578027 3.53239,-2.376332 7.57857,-10.276031 7.57857,-15.799398 0,-4.624214 -2.69746,-7.8997 -8.47772,-7.8997 -12.20279,0.128451 -21.322769,17.083903 -21.322769,28.066413 0,8.22082 5.266469,12.07434 11.175189,12.07434 z"
           style="font-family:'Cream Cake';-inkscape-font-specification:'Cream Cake'"
           id="path873" />
        <path
           d="m 138.88273,112.59435 1.79831,-0.0642 c 2.44055,-0.12845 3.85351,-2.89013 8.34927,-13.101939 l 0.0642,-0.321126 c 0,-0.321126 -0.32113,-0.578027 -0.64226,-0.578027 -0.2569,0 -0.44957,0.12845 -0.57802,0.385351 -4.11041,9.312651 -5.45914,12.202791 -7.25745,12.331241 -0.2569,0 -0.38535,-0.38535 -0.38535,-1.15606 0,-3.72506 3.08281,-12.331234 3.98196,-16.762773 l 0.0642,-0.770702 c 0,-1.734081 -1.34873,-2.697459 -2.95436,-2.697459 -2.76169,0 -5.26647,3.275485 -7.32167,5.780268 -1.15606,1.47718 -2.24789,3.08281 -3.14704,4.495766 2.37633,-7.257449 5.33069,-15.221374 6.10139,-17.083904 l 0.0642,-0.256901 c 0,-1.027603 -2.18366,-1.926756 -3.78929,-1.926756 -0.83492,0 -1.47718,0.192675 -1.66985,0.706477 -1.60563,3.917737 -8.60618,23.506424 -8.60618,28.580214 0.19268,1.99098 1.47718,2.37633 3.59661,2.37633 0.77071,0 1.28451,0 1.28451,-0.64225 0,-1.34873 0.64225,-3.85351 1.47718,-6.80787 1.15605,-2.05521 5.07379,-8.670404 8.60617,-11.945889 0.19268,-0.192675 0.44958,-0.449576 0.64225,-0.449576 0.19268,0 0.25691,0.12845 0.25691,0.449576 0,0.706478 -3.72507,10.982509 -3.85352,15.735169 0,3.14704 1.66986,3.72507 3.91774,3.72507 z"
           style="font-family:'Cream Cake';-inkscape-font-specification:'Cream Cake'"
           id="path875" />
        <path
           d="m 153.46177,101.61184 c -0.32113,0 -0.64225,-0.0642 -0.89915,-0.2569 0.5138,-1.541408 1.34872,-3.211263 2.3121,-4.688443 0.64225,-0.899153 2.69746,-3.596611 4.17464,-3.596611 0.19268,0 0.32113,0 0.5138,0.128451 0.19268,0.12845 0.32113,0.321126 0.32113,0.706477 0,2.055206 -3.66084,7.707026 -6.42252,7.707026 z m 1.22028,10.91828 c 0.64225,0 1.41295,-0.0642 2.24788,-0.32113 2.56901,-0.89915 6.10139,-3.78928 10.40448,-12.780809 0.0642,-0.128451 0.0642,-0.256901 0.0642,-0.256901 0,-0.256901 -0.12845,-0.449576 -0.32113,-0.513802 -0.12845,-0.06422 -0.2569,-0.12845 -0.38535,-0.12845 -0.19268,0 -0.38535,0.12845 -0.5138,0.385351 -4.04619,8.413501 -7.25745,11.175181 -9.50533,12.010111 -0.5138,0.12845 -1.02761,0.19268 -1.41296,0.19268 l -0.70647,-0.0642 c -2.11943,-0.44958 -2.82591,-2.95436 -2.82591,-5.39492 0,-0.83492 0.12845,-1.66985 0.2569,-2.44055 0.5138,0.44957 1.15605,0.64225 1.7983,0.64225 3.46816,0 8.1566,-5.587593 8.28505,-10.147582 v -0.12845 c 0,-2.440558 -1.99098,-3.660836 -4.43153,-3.725062 h -0.2569 c -4.68844,0 -8.09238,4.945341 -9.63378,9.055753 -0.77071,2.055211 -1.22028,4.174641 -1.22028,6.165621 0,4.04619 1.99098,7.25745 7.45012,7.45012 z"
           style="font-family:'Cream Cake';-inkscape-font-specification:'Cream Cake'"
           id="path877" />
        <path
           d="m 165.47187,124.54023 c 3.91773,0 6.35829,-6.67942 7.06477,-9.82645 0.2569,-1.34873 0.5138,-2.69746 0.5138,-3.98196 0,-1.73408 -0.44958,-3.40394 -1.66985,-4.68844 1.41295,0 2.69745,-0.19268 3.78928,-0.70648 2.24788,-0.89915 3.91774,-2.89014 5.33069,-6.03717 l 0.0642,-0.2569 c 0,-0.513802 -0.2569,-0.513802 -0.64225,-0.578027 -0.2569,0 -0.44958,0.06422 -0.57803,0.385351 -1.34873,2.954356 -2.89013,4.559986 -4.55999,5.330696 -1.09183,0.44957 -2.05521,0.57802 -3.14703,0.57802 l -1.22028,-0.0642 c 0.44957,-2.69746 6.42252,-19.717139 7.32167,-21.70812 l 0.0642,-0.192675 c 0,-0.899153 -2.11944,-1.990981 -3.78929,-1.990981 -0.7707,0 -1.41296,0.192675 -1.73408,0.706477 -1.41296,2.504782 -4.30309,10.918283 -6.93632,19.909809 -1.02761,3.46816 -4.23887,15.09292 -4.23887,19.26756 v 0.12845 c 0,0.70648 0.0642,1.28451 0.2569,1.60563 0.83493,1.47718 2.50479,2.11943 4.11042,2.11943 z m 0.70647,-1.34873 c -0.0642,-0.12845 -0.0642,-0.32112 -0.0642,-0.57802 0,-2.37634 2.37633,-10.59716 3.72506,-16.24898 1.54141,1.02761 1.99098,2.56901 1.99098,4.23886 0,1.22028 -0.32112,2.56901 -0.57802,3.78929 -0.89916,4.04619 -3.01859,8.22083 -5.0738,8.79885 z"
           style="font-family:'Cream Cake';-inkscape-font-specification:'Cream Cake'"
           id="path879" />
      </g>
    </g>
  </g>
</svg>
